<svg width="48" height="48" viewBox="0 0 48 48" fill="none" xmlns="http://www.w3.org/2000/svg">
<path d="M24.0001 12.042C24.0001 11.2486 23.8438 10.4629 23.5402 9.72984C23.2365 8.99679 22.7915 8.33072 22.2304 7.76967C21.6694 7.20862 21.0033 6.76357 20.2703 6.45993C19.5372 6.15629 18.7515 6.00001 17.9581 6.00001H12.0421C11.2422 5.98972 10.4482 6.13839 9.70616 6.43738C8.96415 6.73638 8.2889 7.17975 7.71959 7.74178C7.15029 8.30381 6.69827 8.97329 6.38975 9.7114C6.08123 10.4495 5.92236 11.2415 5.92236 12.0415C5.92236 12.8415 6.08123 13.6335 6.38975 14.3716C6.69827 15.1097 7.15029 15.7792 7.71959 16.3412C8.2889 16.9033 8.96415 17.3466 9.70616 17.6456C10.4482 17.9446 11.2422 18.0933 12.0421 18.083H13.2001V21C13.2001 21 24.0001 19.542 24.0001 12.042ZM18.5001 28C18.5001 30.21 16.7101 32 14.5001 32C12.2901 32 10.5001 30.21 10.5001 28C10.5001 25.79 12.2901 24 14.5001 24C16.7101 24 18.5001 25.79 18.5001 28ZM14.5001 34C11.6631 34 6.00009 35.43 6.00009 38.267V42H23.0001V38.267C23.0001 35.429 17.3371 34 14.5001 34ZM33.5001 32C35.7101 32 37.5001 30.21 37.5001 28C37.5001 25.79 35.7101 24 33.5001 24C31.2901 24 29.5001 25.79 29.5001 28C29.5001 30.21 31.2901 32 33.5001 32ZM33.5001 34C30.6631 34 25.0001 35.43 25.0001 38.267V42H42.0001V38.267C42.0001 35.429 36.3371 34 33.5001 34ZM32.0421 7.00001C30.4397 7.00001 28.9028 7.63658 27.7698 8.76967C26.6367 9.90277 26.0001 11.4396 26.0001 13.042C26.0001 20.542 35.6001 22 35.6001 22V19.083H35.9581C36.758 19.0933 37.552 18.9446 38.294 18.6456C39.036 18.3466 39.7113 17.9033 40.2806 17.3412C40.8499 16.7792 41.3019 16.1097 41.6104 15.3716C41.919 14.6335 42.0778 13.8415 42.0778 13.0415C42.0778 12.2415 41.919 11.4495 41.6104 10.7114C41.3019 9.97329 40.8499 9.3038 40.2806 8.74178C39.7113 8.17975 39.036 7.73638 38.294 7.43738C37.552 7.13839 36.758 6.98972 35.9581 7.00001H32.0421Z" fill="#333333"/>
</svg>
