<svg width="36" height="48" viewBox="0 0 36 48" fill="none" xmlns="http://www.w3.org/2000/svg">
<g clip-path="url(#clip0_1471_3060)">
<path d="M16.2937 0.515478C17.325 -0.168896 18.675 -0.168896 19.7062 0.515478L21.375 1.61235C21.9375 1.97798 22.5937 2.1561 23.2593 2.1186L25.2562 1.99673C26.4937 1.92173 27.6562 2.59673 28.2093 3.70298L29.1093 5.4936C29.4093 6.0936 29.8968 6.57173 30.4875 6.87173L32.2968 7.7811C33.4031 8.33423 34.0781 9.49673 34.0031 10.7342L33.8812 12.7311C33.8437 13.3967 34.0218 14.0624 34.3875 14.6155L35.4937 16.2842C36.1781 17.3155 36.1781 18.6655 35.4937 19.6967L34.3875 21.3749C34.0218 21.9374 33.8437 22.5936 33.8812 23.2592L34.0031 25.2561C34.0781 26.4936 33.4031 27.6561 32.2968 28.2092L30.5062 29.1092C29.9062 29.4092 29.4281 29.8967 29.1281 30.4874L28.2187 32.2967C27.6656 33.403 26.5031 34.078 25.2656 34.003L23.2687 33.8811C22.6031 33.8436 21.9375 34.0217 21.3843 34.3874L19.7156 35.4936C18.6843 36.178 17.3343 36.178 16.3031 35.4936L14.625 34.3874C14.0625 34.0217 13.4062 33.8436 12.7406 33.8811L10.7437 34.003C9.50622 34.078 8.34372 33.403 7.79059 32.2967L6.89059 30.5061C6.59059 29.9061 6.10309 29.428 5.51247 29.128L3.70309 28.2186C2.59684 27.6655 1.92184 26.503 1.99684 25.2655L2.11872 23.2686C2.15622 22.603 1.97809 21.9374 1.61247 21.3842L0.515591 19.7061C-0.168784 18.6749 -0.168784 17.3249 0.515591 16.2936L1.61247 14.6249C1.97809 14.0624 2.15622 13.4061 2.11872 12.7405L1.99684 10.7436C1.92184 9.5061 2.59684 8.3436 3.70309 7.79048L5.49372 6.89048C6.09372 6.5811 6.58122 6.0936 6.88122 5.4936L7.78122 3.70298C8.33434 2.59673 9.49684 1.92173 10.7343 1.99673L12.7312 2.1186C13.3968 2.1561 14.0625 1.97798 14.6156 1.61235L16.2937 0.515478ZM25.5 17.9999C25.5 16.0107 24.7098 14.1031 23.3033 12.6966C21.8967 11.29 19.9891 10.4999 18 10.4999C16.0108 10.4999 14.1032 11.29 12.6967 12.6966C11.2901 14.1031 10.5 16.0107 10.5 17.9999C10.5 19.989 11.2901 21.8966 12.6967 23.3032C14.1032 24.7097 16.0108 25.4999 18 25.4999C19.9891 25.4999 21.8967 24.7097 23.3033 23.3032C24.7098 21.8966 25.5 19.989 25.5 17.9999ZM0.121841 41.4186L4.16247 31.8092C4.18122 31.8186 4.19059 31.828 4.19997 31.8467L5.09997 33.6374C6.19684 35.8124 8.47497 37.1342 10.9125 36.9936L12.9093 36.8717C12.9281 36.8717 12.9562 36.8717 12.975 36.8905L14.6437 37.9967C15.1218 38.3061 15.6281 38.5499 16.1531 38.7186L12.6281 47.0905C12.4125 47.6061 11.9343 47.953 11.3812 47.9999C10.8281 48.0467 10.2937 47.7936 9.99372 47.3248L6.97497 42.703L1.71559 43.4811C1.18122 43.5561 0.646841 43.3405 0.309341 42.9186C-0.0281587 42.4967 -0.0937837 41.9155 0.112466 41.4186H0.121841ZM23.3718 47.0811L19.8468 38.7186C20.3718 38.5499 20.8781 38.3155 21.3562 37.9967L23.025 36.8905C23.0437 36.8811 23.0625 36.8717 23.0906 36.8717L25.0875 36.9936C27.525 37.1342 29.8031 35.8124 30.9 33.6374L31.8 31.8467C31.8093 31.828 31.8187 31.8186 31.8375 31.8092L35.8875 41.4186C36.0937 41.9155 36.0187 42.4874 35.6906 42.9186C35.3625 43.3498 34.8187 43.5655 34.2843 43.4811L29.025 42.703L26.0062 47.3155C25.7062 47.7842 25.1718 48.0373 24.6187 47.9905C24.0656 47.9436 23.5875 47.5874 23.3718 47.0811Z" fill="#333333"/>
</g>
<defs>
<clipPath id="clip0_1471_3060">
<rect width="36" height="48" fill="white"/>
</clipPath>
</defs>
</svg>
