<svg width="48" height="48" viewBox="0 0 48 48" fill="none" xmlns="http://www.w3.org/2000/svg">
<path d="M11.4629 2.0135C10.1939 1.16943 8.57129 2.2156 8.57129 3.9409L8.58415 34.8505C8.58415 35.9145 9.07272 36.8938 9.86729 37.4288L9.87372 37.4318L22.5766 45.8428L22.5843 45.8487C23.4714 46.4283 24.5604 46.4372 25.4514 45.8413H25.454L38.1389 37.4318L38.1453 37.4273C38.5359 37.1656 38.8601 36.7897 39.0853 36.3375C39.3105 35.8852 39.4289 35.3724 39.4284 34.8505V3.93941C39.4284 2.2156 37.8059 1.16795 36.5369 2.01202L23.9999 10.3829L11.4641 2.01499L11.4629 2.0135ZM11.1556 34.849L11.1427 5.23226L23.9999 13.8156L24.0127 43.3135C23.9554 43.3121 23.8993 43.2942 23.8494 43.2615L23.8469 43.26L11.1569 34.858L11.1556 34.849Z" fill="#333333"/>
</svg>
