<svg width="34" height="40" viewBox="0 0 34 40" fill="none" xmlns="http://www.w3.org/2000/svg">
<g clip-path="url(#clip0_1567_2288)">
<path d="M13.1629 7.86172C15.2752 7.86172 16.9864 6.10156 16.9864 3.93125C16.9864 1.76094 15.2745 0 13.1629 0C11.0513 0 9.33936 1.75938 9.33936 3.93125C9.33936 6.10313 11.0513 7.86172 13.1629 7.86172Z" fill="#333333"/>
<path d="M32.6756 22.9303C32.6057 22.4545 32.1741 22.1264 31.7099 22.1975L29.7518 22.4998L29.5838 21.3545C29.5147 20.8889 29.093 20.5693 28.6409 20.6381L28.3894 20.6772C28.3727 20.5396 28.3438 20.4029 28.2876 20.2701L26.47 15.9498C26.0248 14.9256 24.7984 13.6076 23.847 13.0584C23.847 13.0584 18.2402 9.52168 17.7812 9.3498C17.516 9.25137 17.2334 9.20684 16.9454 9.19824L14.1424 14.9623L10.7428 10.2732C10.5301 10.4162 10.3454 10.5678 10.217 10.7287L5.17926 16.8943L1.03205 18.4662C0.246373 18.7639 -0.175339 19.6412 0.0731287 20.4639L0.0928846 20.5271C0.336794 21.3357 1.37702 21.735 2.17941 21.5443L5.32895 20.8209C6.17238 20.6209 6.97249 20.2639 7.68978 19.767L10.3705 17.4037L11.0407 23.2123C11.1015 23.6881 11.1205 23.7998 10.888 24.217L8.95036 27.4295C8.20343 28.6693 7.65863 30.0279 7.33797 31.4498L5.90795 37.7842C5.73471 38.8022 6.39425 39.7732 7.38432 39.9568L7.45347 39.9693C8.39035 40.142 9.29988 39.549 9.54379 38.6037L11.7823 31.7975L15.2054 26.8279L18.0487 31.7193C18.2257 32.0811 18.4583 32.4092 18.7402 32.692L24.0279 38.0076C24.695 38.6779 25.7505 38.7076 26.4518 38.0764L26.5361 38.0006C26.8955 37.6771 27.1136 37.2193 27.1425 36.7295C27.1706 36.2397 27.0072 35.7576 26.6881 35.3943L22.2233 30.2811L19.7979 22.9717L19.3161 15.4553L22.5234 16.86L25.4313 21.3209C25.255 21.5045 25.1517 21.7584 25.192 22.0334L25.3599 23.1803L23.401 23.4826C22.9368 23.5537 22.6184 23.9982 22.6883 24.4756L23.4922 29.9787C23.5621 30.4545 23.9945 30.7834 24.458 30.7115L32.7706 29.4279C33.2349 29.3553 33.5533 28.91 33.4841 28.4342L32.6787 22.9311L32.6756 22.9303ZM13.9326 17.5709C13.9326 17.2615 14.1765 17.0107 14.4767 17.0107C14.7768 17.0107 15.0215 17.2615 15.0215 17.5709C15.0215 17.8803 14.7776 18.1311 14.4767 18.1311C14.1765 18.1311 13.9326 17.8803 13.9326 17.5709ZM14.716 21.46C14.4159 21.46 14.1712 21.2084 14.1712 20.899C14.1712 20.5897 14.4159 20.3396 14.716 20.3396C15.0162 20.3396 15.2608 20.5904 15.2608 20.899C15.2608 21.2084 15.0169 21.46 14.716 21.46ZM25.9989 22.0592C26.4176 22.399 26.9951 22.4896 27.5034 22.2521L27.5482 22.2326C27.8674 22.0842 28.1044 21.8287 28.2496 21.5287L28.7594 21.4498L28.7944 21.4764L28.9615 22.6217L26.1456 23.0576L25.9989 22.0592Z" fill="#333333"/>
<path d="M12.8496 11.8711L13.9491 13.3875L14.7219 11.7984L14.4156 9.30078C13.7341 9.36484 13.1186 9.47109 12.5723 9.61094L12.8496 11.8711Z" fill="#333333"/>
</g>
<defs>
<clipPath id="clip0_1567_2288">
<rect width="33.49" height="40" fill="white"/>
</clipPath>
</defs>
</svg>
