<svg width="59" height="69" viewBox="0 0 59 69" fill="none" xmlns="http://www.w3.org/2000/svg">
<path d="M13.4099 21.48C19.0653 21.48 23.6499 16.8954 23.6499 11.24C23.6499 5.5846 19.0653 1 13.4099 1C7.75453 1 3.16992 5.5846 3.16992 11.24C3.16992 16.8954 7.75453 21.48 13.4099 21.48Z" stroke="#ED6C00" stroke-width="2" stroke-linecap="round" stroke-linejoin="round"/>
<path d="M45.0505 21.48C50.7059 21.48 55.2905 16.8954 55.2905 11.24C55.2905 5.5846 50.7059 1 45.0505 1C39.3951 1 34.8105 5.5846 34.8105 11.24C34.8105 16.8954 39.3951 21.48 45.0505 21.48Z" stroke="#ED6C00" stroke-width="2" stroke-linecap="round" stroke-linejoin="round"/>
<path fill-rule="evenodd" clip-rule="evenodd" d="M1 28.6602C1 50.2202 6.54 67.6902 13.37 67.6902C20.2 67.6902 25.74 50.2202 25.74 28.6602H1Z" stroke="#ED6C00" stroke-width="2" stroke-linecap="round" stroke-linejoin="round"/>
<path fill-rule="evenodd" clip-rule="evenodd" d="M32.6895 67.6902C32.6895 46.1302 38.2295 28.6602 45.0595 28.6602C51.8895 28.6602 57.4295 46.1302 57.4295 67.6902H32.6895Z" stroke="#ED6C00" stroke-width="2" stroke-linecap="round" stroke-linejoin="round"/>
</svg>
