<svg width="43" height="44" viewBox="0 0 43 44" fill="none" xmlns="http://www.w3.org/2000/svg">
<path d="M11.4282 33.0791V38.0567C11.4282 38.1381 11.4955 38.2048 11.5778 38.2048H14.6591C14.7414 38.2048 14.8087 38.1381 14.8087 38.0567V36.5821C14.8087 36.5007 14.8761 36.434 14.9584 36.434H19.1984C19.2807 36.434 19.348 36.3674 19.348 36.286V33.0791" fill="#333333"/>
<path d="M10.3257 27.626H5.63008C5.54779 27.626 5.48047 27.6926 5.48047 27.774V33.5889C5.48047 33.6703 5.54779 33.7369 5.63008 33.7369H6.62576C6.70805 33.7369 6.77538 33.8036 6.77538 33.885V38.1623C6.77538 38.2437 6.8427 38.3104 6.92499 38.3104H10.316" fill="#333333"/>
<path d="M31.8341 3.06847V8.98918C31.8341 9.07062 31.7668 9.13724 31.6845 9.13724H28.9548C28.8725 9.13724 28.8052 9.20386 28.8052 9.2853V12.849C28.8052 12.9304 28.8725 12.997 28.9548 12.997H31.6845C31.7668 12.997 31.8341 12.9304 31.8341 12.849V11.9488C31.8341 11.8674 31.9014 11.8007 31.9837 11.8007H42.4903C42.5726 11.8007 42.64 11.7341 42.64 11.6527V3.06847C42.64 2.98703 42.5726 2.92041 42.4903 2.92041H31.9837C31.9014 2.92041 31.8341 2.98703 31.8341 3.06847Z" fill="#333333"/>
<path d="M36.4611 14.4062H33.3671C33.2848 14.4062 33.2175 14.4729 33.2175 14.5543V16.3302C33.2175 16.4117 33.1501 16.4783 33.0678 16.4783H31.6286C31.5463 16.4783 31.4789 16.4117 31.4789 16.3302V15.6011C31.4789 15.5196 31.4116 15.453 31.3293 15.453H28.6071C28.5248 15.453 28.4575 15.5196 28.4575 15.6011L28.4612 25.0603C28.4612 25.1417 28.3939 25.2083 28.3116 25.2083H25.9477C25.8654 25.2083 25.7981 25.1417 25.7981 25.0603V23.901C25.7981 23.8196 25.7308 23.753 25.6485 23.753H23.6422C23.5599 23.753 23.4926 23.8196 23.4926 23.901V27.3085C23.4926 27.3899 23.4252 27.4566 23.3429 27.4566H11.5788C11.4965 27.4566 11.4292 27.5232 11.4292 27.6046V31.839C11.4292 31.9204 11.4965 31.987 11.5788 31.987H20.4696C20.5519 31.987 20.6192 32.0537 20.6192 32.1351V36.4524C20.6192 36.5338 20.6866 36.6004 20.7688 36.6004H23.9781C24.0603 36.6004 24.1277 36.5338 24.1277 36.4524V35.5085C24.1277 35.4271 24.195 35.3605 24.2773 35.3605H30.5274C30.6097 35.3605 30.677 35.2938 30.677 35.2124V34.1523C30.677 34.0709 30.7443 34.0043 30.8266 34.0043H32.1081C32.1904 34.0043 32.2577 34.0709 32.2577 34.1523V36.7663C32.2577 36.8477 32.325 36.9143 32.4073 36.9143H35.3158C35.3981 36.9143 35.4654 36.8477 35.4654 36.7663V34.1523C35.4654 34.0709 35.5327 34.0043 35.615 34.0043H36.4581" fill="#333333"/>
<path d="M1.65473 38.7339H0.149614C0.0669844 38.7339 0 38.8002 0 38.8819V42.356C0 42.4378 0.0669844 42.5041 0.149614 42.5041H1.65473C1.73736 42.5041 1.80434 42.4378 1.80434 42.356V38.8819C1.80434 38.8002 1.73736 38.7339 1.65473 38.7339Z" fill="#333333"/>
</svg>
