<svg width="99" height="88" viewBox="0 0 99 88" fill="none" xmlns="http://www.w3.org/2000/svg">
<g clip-path="url(#clip0_1567_2715)">
<path d="M71.35 11.1C71.15 10.93 70.88 10.92 70.53 10.92H65.72V10.4H70.39C70.7 10.4 70.94 10.34 71.1 10.2C71.26 10.05 71.34 9.81996 71.34 9.46996V8.88996C71.34 8.51996 71.25 8.28996 71.09 8.14996C70.93 8.00996 70.69 7.95996 70.4 7.95996H65.66C65.34 7.95996 65.09 8.00996 64.92 8.15996C64.75 8.30996 64.66 8.55996 64.66 8.94996V11.31C64.66 13.19 64.39 13.85 64.11 14.5C64.04 14.68 63.96 14.86 63.96 15.04C63.96 15.54 64.57 15.58 64.63 15.58C64.87 15.58 65 15.47 65.22 14.91C65.65 13.82 65.72 12.4 65.73 11.81H70.26C70.58 11.81 70.6 11.86 70.61 12.24C70.61 12.64 70.56 14.07 70.39 14.37C70.29 14.54 70.27 14.56 69.9 14.56H69.68C69.75 14.46 69.81 14.3 69.81 13.83V13.26C69.81 12.84 69.76 12.59 69.6 12.43C69.44 12.27 69.19 12.23 68.78 12.23H67.14C66.72 12.23 66.47 12.28 66.31 12.43C66.16 12.59 66.11 12.84 66.11 13.25V13.82C66.11 14.23 66.16 14.49 66.31 14.65C66.47 14.8 66.72 14.85 67.13 14.85H68.89C68.89 14.85 68.86 14.96 68.86 15.05C68.86 15.22 68.93 15.45 69.14 15.56C69.26 15.62 69.31 15.62 69.76 15.62H69.91C70.82 15.62 71.27 15.57 71.46 14.71C71.6 14.12 71.64 12.73 71.64 12.13C71.64 11.57 71.54 11.27 71.35 11.1ZM65.72 9.52996V9.10996C65.72 8.98996 65.76 8.87996 65.96 8.87996H70.07C70.2 8.87996 70.25 8.93996 70.25 9.05996V9.34996C70.25 9.48996 70.19 9.52996 70.07 9.53996H65.72V9.52996ZM68.79 13.32V13.79C68.79 13.91 68.76 14.02 68.56 14.02H67.34C67.19 14.02 67.12 13.95 67.12 13.79V13.32C67.12 13.16 67.18 13.09 67.34 13.09H68.56C68.74 13.09 68.78 13.19 68.79 13.32Z" fill="#ED6C00"/>
<path d="M40.7101 13.34C40.3701 14.26 39.9101 14.98 39.1001 14.98C38.1001 14.98 37.1401 13.64 37.1401 12.02C37.1401 9.62003 38.9301 8.03003 41.3101 8.03003C43.8601 8.03003 45.0601 9.86003 45.0601 11.6C45.0601 14.3 42.6101 15.38 42.1401 15.38C41.7501 15.38 41.5401 15.05 41.5401 14.75C41.5401 14.51 41.6401 14.39 41.8401 14.3C42.4801 14.01 43.8301 13.39 43.8301 11.6C43.8301 10.89 43.6101 9.39003 41.6601 9.12003C41.5201 10.37 41.2801 11.85 40.7101 13.35V13.34ZM38.2701 12.05C38.2701 12.94 38.6501 13.74 39.0601 13.74C39.3401 13.74 39.5201 13.24 39.6701 12.85C40.1001 11.67 40.3501 10.41 40.5101 9.16003C38.9301 9.57003 38.2701 10.84 38.2701 12.05Z" fill="#ED6C00"/>
<path d="M50.9401 9.64001C50.9401 9.79001 50.9901 9.91 51.0801 9.98C51.1801 10.05 51.3201 10.08 51.5101 10.08C51.6801 10.08 51.8101 10.04 51.8901 9.96C51.9701 9.88 52.0101 9.77 52.0101 9.65V9.34H53.4901C53.6601 9.34 53.7901 9.31 53.8801 9.23C53.9801 9.15 54.0201 9.02 54.0201 8.83C54.0201 8.36 53.6001 8.36001 53.4901 8.35001H52.0101V8.05C52.0101 7.71 51.7301 7.64 51.4401 7.64C51.2301 7.64 50.9401 7.71 50.9401 8.05V8.35001H49.0701V8.05C49.0701 7.71 48.8001 7.63 48.5001 7.63C48.2901 7.63 48.0001 7.7 48.0001 8.04V8.34H46.5101C46.3701 8.34 46.2301 8.36 46.1301 8.44C46.0301 8.51 45.9701 8.64 45.9701 8.84C45.9701 9.3 46.3301 9.32 46.5001 9.32H47.9901V9.63C47.9901 9.74 48.0101 9.78001 48.0401 9.85001C47.9001 9.90001 47.8001 9.99 47.6901 10.19C47.2701 10.93 46.9801 11.46 46.1701 12.2C46.0401 12.32 45.8901 12.46 45.8901 12.71C45.8901 12.99 46.1401 13.33 46.4501 13.33C46.6701 13.33 46.8601 13.16 47.1401 12.86V15.1C47.1401 15.28 47.1801 15.42 47.2701 15.51C47.3701 15.6 47.5201 15.64 47.7301 15.64C47.9801 15.64 48.1101 15.54 48.1801 15.43C48.2501 15.32 48.2401 15.18 48.2401 15.11V11.44C48.4101 11.16 48.7301 10.62 48.7401 10.35C48.7401 10.19 48.7001 10.12 48.6601 10.06C48.8101 10.04 49.0501 9.99001 49.0501 9.64001V9.33H50.9201V9.64001H50.9401ZM53.4001 13.01C53.1601 13.01 52.9701 13.12 52.9201 13.42C52.9201 13.49 52.8701 13.83 52.8601 13.89C52.7701 14.54 52.7801 14.51 52.0301 14.52C51.2201 14.52 51.2001 14.52 51.1301 14.49C51.0101 14.45 50.9801 14.36 50.9801 14.2V12.85C51.5601 12.6 52.2301 12.24 52.6501 11.97C53.5701 11.38 53.6201 11.21 53.6201 10.98C53.6201 10.7 53.3701 10.41 53.0601 10.41C52.8801 10.41 52.8301 10.45 52.4201 10.78C51.9501 11.15 51.6801 11.3 50.9801 11.66V10.46C50.9801 10.3 50.9601 10.16 50.8601 10.07C50.7701 9.97 50.6201 9.92 50.3901 9.92C49.8701 9.92 49.8601 10.33 49.8601 10.46V14.54C49.8601 14.73 49.8601 15.25 50.2901 15.44C50.4701 15.53 50.5201 15.54 52.2001 15.54H52.2601C53.0301 15.54 53.4201 15.54 53.6701 15.12C53.8701 14.77 53.9701 13.93 53.9701 13.55C53.9701 13.36 53.9101 13.23 53.8101 13.14C53.7101 13.06 53.5601 13.02 53.3901 13.02L53.4001 13.01Z" fill="#ED6C00"/>
<path d="M62.9101 9.9C62.9101 9.69 62.7201 9.41 62.4301 9.41C62.3001 9.41 62.2001 9.46001 62.1101 9.52001C62.0401 9.57001 61.7001 9.85 61.6101 9.9C61.1501 10.21 61.0801 10.25 61.0801 10.44C61.0801 10.64 61.2601 10.94 61.5201 10.94C61.7401 10.94 62.0601 10.72 62.3101 10.55C62.8301 10.2 62.8901 10.08 62.8801 9.9H62.9101ZM55.6401 9.01H56.9801V9.12C56.9801 9.22 57.0001 9.32 57.0801 9.4C57.1601 9.47 57.3001 9.52001 57.5401 9.52001C57.6701 9.52001 58.0401 9.49 58.0401 9.12V9.01H60.2001V9.12C60.2001 9.21 60.2101 9.31001 60.2901 9.39001C60.3701 9.46001 60.5101 9.52001 60.7601 9.52001C60.8901 9.52001 61.2601 9.49 61.2601 9.12V9.01H62.6101C62.8001 9.01 63.1401 8.97 63.1401 8.58C63.1401 8.14 62.7301 8.14001 62.6101 8.14001H61.2601C61.2601 8.01001 61.2601 7.89 61.1901 7.8C61.1201 7.7 60.9701 7.64 60.7001 7.64C60.4601 7.64 60.3301 7.71 60.2701 7.82C60.2101 7.92 60.2101 8.04001 60.2101 8.14001H58.0501C58.0501 8.02001 58.0501 7.89 57.9801 7.8C57.9101 7.7 57.7601 7.63 57.4801 7.63C57.2401 7.63 57.1101 7.7 57.0501 7.81C56.9901 7.91 56.9901 8.03 56.9901 8.13H55.6501C55.4401 8.13 55.1201 8.19 55.1201 8.57C55.1201 9 55.5401 9 55.6501 9L55.6401 9.01ZM61.2601 11.94C61.4601 12.05 61.8701 12.27 62.0001 12.35C62.4201 12.61 62.4801 12.65 62.6501 12.65C62.9801 12.65 63.0801 12.34 63.1001 12.22C63.1001 12.2 63.1001 12.17 63.1001 12.15C63.1001 11.9 62.8801 11.76 62.7101 11.66C62.4101 11.48 61.7301 11.09 61.4701 11.09C61.1501 11.09 60.9901 11.39 60.9901 11.58C60.9901 11.78 61.1301 11.88 61.2601 11.94ZM62.9601 13.67C63.0601 13.61 63.1401 13.5 63.1301 13.3C63.1301 13.12 63.0801 13.01 62.9901 12.94C62.9001 12.87 62.7901 12.85 62.6701 12.85H59.6301V12.53H60.0401C60.4301 12.53 60.6601 12.46 60.7801 12.29C60.9101 12.13 60.9301 11.89 60.9301 11.56V10.56C60.9301 10.24 60.9101 10 60.7901 9.83C60.6601 9.66 60.4401 9.58 60.0501 9.58H59.5601C59.5901 9.48 59.6101 9.44001 59.6101 9.39001C59.6101 9.22001 59.4001 9.07 59.0501 9.07C58.7201 9.07 58.6501 9.19 58.4801 9.57H58.2401C57.8501 9.57 57.6201 9.64 57.4901 9.8C57.3601 9.97001 57.3401 10.21 57.3401 10.54V11.54C57.3401 11.87 57.3601 12.11 57.4901 12.27C57.6201 12.43 57.8501 12.5 58.2401 12.5H58.5901V12.82H55.6001C55.4801 12.82 55.1401 12.82 55.1401 13.24C55.1401 13.4 55.1701 13.52 55.2501 13.59C55.3301 13.67 55.4401 13.7 55.6001 13.7H57.7201C57.4501 13.84 56.8601 14.14 56.2601 14.28C55.3901 14.5 55.2001 14.54 55.2001 14.92C55.2001 15.09 55.3001 15.46 55.6701 15.46C56.0601 15.46 57.5701 14.91 58.5901 14.16V15.11C58.5901 15.27 58.6001 15.64 59.0801 15.65C59.2601 15.65 59.4001 15.62 59.5001 15.54C59.6001 15.46 59.6401 15.32 59.6401 15.12V14.1C60.6601 14.97 62.2201 15.46 62.5701 15.46C62.9801 15.46 63.0701 15.09 63.0701 14.94C63.0701 14.61 62.8001 14.53 62.5701 14.47C61.8501 14.28 61.2101 14.11 60.5001 13.71H62.6801C62.7501 13.71 62.8701 13.71 62.9701 13.65L62.9601 13.67ZM58.3301 10.45C58.3301 10.33 58.3801 10.27 58.5001 10.27H59.7301C59.8701 10.27 59.9101 10.32 59.9101 10.45V10.66H58.3301V10.45ZM58.5001 11.79C58.3801 11.79 58.3301 11.73 58.3301 11.61V11.39H59.9101V11.61C59.9101 11.73 59.8601 11.79 59.7301 11.79H58.5101H58.5001ZM56.6601 10.87C56.8701 10.87 57.1301 10.67 57.1301 10.31C57.1301 10.13 56.9901 10.02 56.6801 9.81001C56.4301 9.64001 56.0101 9.36 55.7801 9.36C55.5201 9.36 55.3301 9.62001 55.3201 9.85001C55.3201 9.99001 55.3901 10.1 55.4501 10.14C55.5201 10.2 55.8801 10.43 55.9601 10.49C56.4001 10.79 56.5001 10.86 56.6801 10.86L56.6601 10.87ZM55.1401 12.04C55.1401 12.17 55.2201 12.56 55.5901 12.57C55.8601 12.57 56.5301 12.21 56.7901 12.05C57.0001 11.93 57.2301 11.81 57.2301 11.56C57.2301 11.54 57.2301 11.52 57.2301 11.51C57.2101 11.34 57.0801 11.1 56.8201 11.1C56.7301 11.1 56.6501 11.12 56.5301 11.17C56.4001 11.22 55.7901 11.52 55.6501 11.57C55.3101 11.7 55.1301 11.78 55.1301 12.04H55.1401Z" fill="#ED6C00"/>
<path d="M29.63 13.5C29.41 13.9 29.28 14.16 28.91 14.16C28.62 14.16 28.25 13.97 28.25 13.59C28.25 13.41 28.28 13.34 28.58 12.81C28.72 12.55 29.29 11.4 29.72 10.24C28.74 10.26 28.29 10.27 28.29 9.65003C28.29 9.08003 28.76 9.08003 28.95 9.08003C29.18 9.08003 29.91 9.08003 30.1 9.08003C30.15 8.91003 30.35 8.08003 30.42 7.96003C30.52 7.76003 30.69 7.66003 30.92 7.66003C31.19 7.66003 31.6 7.79003 31.6 8.14003C31.6 8.28003 31.58 8.36003 31.39 8.97003C31.52 8.95003 32.06 8.88003 32.18 8.88003C32.5 8.88003 32.65 9.12003 32.65 9.41003C32.65 9.98003 32.38 10.02 31 10.15C30.59 11.29 30.18 12.43 29.61 13.5H29.63ZM32.98 11.11C32.98 10.59 33.38 10.57 33.51 10.57C34.08 10.57 34.11 10.99 34.12 11.15C34.17 11.84 34.18 12.44 34.19 12.86C34.72 13.05 35.35 13.38 35.64 13.58C35.87 13.73 35.97 13.85 35.97 14.08C35.97 14.37 35.78 14.76 35.41 14.76C35.29 14.76 35.25 14.73 34.85 14.48C34.62 14.34 34.3 14.17 34.22 14.14C34.22 15.25 33.49 15.66 32.37 15.66C31.19 15.66 30.3 15.08 30.3 14.08C30.3 13.26 30.93 12.48 32.27 12.48C32.59 12.48 32.92 12.53 33.03 12.55C33.02 12.35 32.97 11.35 32.97 11.12L32.98 11.11ZM32.21 13.51C31.61 13.51 31.36 13.75 31.36 14.05C31.36 14.52 31.94 14.64 32.26 14.64C32.36 14.64 32.96 14.64 33.07 14.24C33.1 14.15 33.09 14.1 33.09 13.65C32.93 13.59 32.56 13.51 32.22 13.51H32.21Z" fill="#ED6C00"/>
<path d="M36.7799 9.64004C36.7799 10.23 35.9099 10.1 35.4099 9.96004C35.5399 10.46 35.6699 11.33 35.0799 11.33C34.4799 11.33 34.6199 10.46 34.7499 9.96004C34.2499 10.09 33.3799 10.23 33.3799 9.64004C33.3799 9.03004 34.2499 9.17004 34.7499 9.31004C34.6199 8.81004 34.4799 7.94004 35.0799 7.95004C35.6799 7.95004 35.5399 8.81004 35.4099 9.32004C35.8999 9.19004 36.7799 9.04004 36.7799 9.65004V9.64004ZM35.2199 9.77004C35.4199 9.76004 35.5899 9.71004 35.6899 9.64004C35.5899 9.57004 35.4199 9.52004 35.2199 9.50004C35.1999 9.30004 35.1499 9.13004 35.0799 9.02004C35.0099 9.13004 34.9599 9.30004 34.9499 9.50004C34.7499 9.51004 34.5799 9.56004 34.4799 9.64004C34.5799 9.71004 34.7499 9.75004 34.9499 9.77004C34.9699 9.97004 35.0199 10.14 35.0799 10.24C35.1499 10.14 35.1999 9.96004 35.2199 9.77004Z" fill="#ED6C00"/>
<path d="M94.7602 0.75H3.93018V86.55H94.7602V0.75Z" stroke="#ED6C00" stroke-width="1.5" stroke-linecap="round" stroke-linejoin="round"/>
<path d="M97.94 21.65H0.75V29H97.94V21.65Z" fill="white" stroke="#ED6C00" stroke-width="1.5" stroke-linecap="round" stroke-linejoin="round"/>
<path d="M45.6402 65.1H14.4502V72.67H45.6402V65.1Z" fill="white" stroke="#ED6C00" stroke-width="1.5" stroke-linecap="round" stroke-linejoin="round"/>
<path d="M41.3999 40.3H18.6899V65.1H41.3999V40.3Z" fill="white" stroke="#ED6C00" stroke-width="1.5" stroke-linecap="round" stroke-linejoin="round"/>
<path d="M36.36 51.43H32.06V47.13H28.03V51.43H23.73V55.46H28.03V59.76H32.06V55.46H36.36V51.43Z" fill="white"/>
<path d="M36.36 51.43H32.06V47.13H28.03V51.43H23.73V55.46H28.03V59.76H32.06V55.46H36.36V51.43Z" stroke="#ED6C00" stroke-width="1.5" stroke-linecap="round" stroke-linejoin="round"/>
<path d="M84.1099 40.14H55.1899V86.5H84.1099V40.14Z" fill="white" stroke="#ED6C00" stroke-width="1.5" stroke-linecap="round" stroke-linejoin="round"/>
<path d="M77.6599 65.5701C79.0792 65.5701 80.2299 64.4194 80.2299 63.0001C80.2299 61.5807 79.0792 60.4301 77.6599 60.4301C76.2405 60.4301 75.0898 61.5807 75.0898 63.0001C75.0898 64.4194 76.2405 65.5701 77.6599 65.5701Z" stroke="#ED6C00" stroke-width="1.5" stroke-miterlimit="10"/>
</g>
<defs>
<clipPath id="clip0_1567_2715">
<rect width="98.69" height="87.3" fill="white"/>
</clipPath>
</defs>
</svg>
