<svg width="48" height="48" viewBox="0 0 48 48" fill="none" xmlns="http://www.w3.org/2000/svg">
<g clip-path="url(#clip0_1471_3309)">
<path fill-rule="evenodd" clip-rule="evenodd" d="M22.82 4.034C24.4 4.174 25.326 4.714 25.888 5.338C26.574 6.1 27 7.304 27 9C27.0002 9.53066 26.8597 10.0519 26.5928 10.5105C26.3259 10.9692 25.942 11.3488 25.4805 11.6107C25.0189 11.8726 24.4962 12.0073 23.9656 12.0012C23.4349 11.9951 22.9154 11.8484 22.46 11.576L22.2 11.4C21.9899 11.2424 21.7508 11.1278 21.4964 11.0626C21.2419 10.9974 20.9772 10.983 20.7172 11.0201C20.4572 11.0572 20.207 11.1452 19.981 11.279C19.755 11.4129 19.5576 11.5899 19.4 11.8C19.2424 12.0101 19.1278 12.2492 19.0626 12.5036C18.9974 12.7581 18.983 13.0228 19.0201 13.2828C19.0951 13.8079 19.3757 14.2817 19.8 14.6C20.84 15.38 22.0766 15.855 23.3714 15.9717C24.6661 16.0885 25.9678 15.8424 27.1305 15.261C28.2932 14.6796 29.2711 13.7859 29.9546 12.6801C30.638 11.5743 31 10.3 31 9C31 7.63 30.796 6.262 30.304 5.014C38.26 7.654 44 15.156 44 24C44 35.046 35.046 44 24 44C12.954 44 4 35.046 4 24C4 13.35 12.324 4.646 22.82 4.034ZM29.28 30.464C28.8726 30.1247 28.3471 29.961 27.819 30.009C27.2909 30.057 26.8036 30.3128 26.464 30.72C25.746 31.58 24.868 32 24 32C23.132 32 22.254 31.58 21.536 30.72C21.1922 30.327 20.7084 30.0841 20.1879 30.0431C19.6674 30.002 19.1515 30.1662 18.7504 30.5004C18.3493 30.8347 18.0948 31.3125 18.0413 31.8319C17.9878 32.3513 18.1395 32.871 18.464 33.28C19.808 34.894 21.752 36 24 36C26.248 36 28.192 34.894 29.536 33.28C29.8753 32.8726 30.039 32.3471 29.991 31.819C29.943 31.2909 29.6872 30.8036 29.28 30.464ZM17 20C16.2043 20 15.4413 20.3161 14.8787 20.8787C14.3161 21.4413 14 22.2043 14 23C14 23.7956 14.3161 24.5587 14.8787 25.1213C15.4413 25.6839 16.2043 26 17 26C17.7956 26 18.5587 25.6839 19.1213 25.1213C19.6839 24.5587 20 23.7956 20 23C20 22.2043 19.6839 21.4413 19.1213 20.8787C18.5587 20.3161 17.7956 20 17 20ZM31 20C30.2043 20 29.4413 20.3161 28.8787 20.8787C28.3161 21.4413 28 22.2043 28 23C28 23.7956 28.3161 24.5587 28.8787 25.1213C29.4413 25.6839 30.2043 26 31 26C31.7956 26 32.5587 25.6839 33.1213 25.1213C33.6839 24.5587 34 23.7956 34 23C34 22.2043 33.6839 21.4413 33.1213 20.8787C32.5587 20.3161 31.7956 20 31 20Z" fill="#FACA9E"/>
</g>
<defs>
<clipPath id="clip0_1471_3309">
<rect width="48" height="48" fill="white"/>
</clipPath>
</defs>
</svg>
