<?xml version="1.0" encoding="UTF-8"?><svg id="_レイヤー_2" xmlns="http://www.w3.org/2000/svg" viewBox="0 0 106.79 94.7"><defs><style>.cls-1,.cls-2{stroke:#faca9e;}.cls-1,.cls-3{fill:#faca9e;}.cls-2{fill:#fdf0e5;}.cls-3,.cls-4{stroke-width:0px;}.cls-4{fill:#fff;}</style></defs><g id="_レイヤー_1-2"><path class="cls-2" d="m61.29.51l.39,47.87L56.09.87c1.66-.21,3.52-.34,5.2-.37Z"/><path class="cls-1" d="m62.29.51c24.35.27,44,20.09,44,44.5s-19.92,44.5-44.5,44.5-44.5-19.92-44.5-44.5C17.29,22.55,32.96,4.35,55.1,1.01l6.19,44.06,1-.07V.51Z"/><path class="cls-3" d="m41.67,93.2c-1.63,0-3.08-1.13-4.06-3.19-.82-1.71-1.27-3.94-1.27-6.29v-.39s-.08,0-.08,0c-.52,0-1.03-.14-1.51-.41-1.41-.79-2.12-2.48-1.99-4.75.03-.57.12-1.17.26-1.8-.32.35-.7.64-1.11.87-.6.34-1.25.52-1.92.52h0c-.34,0-.68-.04-1.03-.14.03.52.05,1.03.05,1.55,0,3.56-.68,6.94-1.91,9.5-1.4,2.91-3.38,4.51-5.59,4.51-.99,0-2.37-.34-3.44-1.94-1.07,1.6-2.46,1.94-3.46,1.94-2.21,0-4.19-1.6-5.59-4.51-1.23-2.56-1.9-5.94-1.9-9.51,0-.51.01-1.03.04-1.55-.34.09-.68.13-1.01.13-.68,0-1.33-.18-1.94-.53-1.92-1.07-2.87-3.43-2.68-6.65.17-2.83,1.21-6.11,2.94-9.22,1.47-2.64,3.31-4.92,5.32-6.61.15-.12.31-.21.49-.27-.14-.13-.28-.26-.41-.39-2.19-2.19-3.4-5.1-3.4-8.19s1.2-6.01,3.39-8.2,5.1-3.4,8.19-3.4c1.53,0,3.02.3,4.44.88,1.41.59,2.68,1.43,3.76,2.51,1.08,1.08,1.93,2.34,2.51,3.76.59,1.41.88,2.9.88,4.43,0,1.53-.3,3.02-.88,4.44-.59,1.42-1.43,2.68-2.51,3.76-.14.14-.28.27-.42.4.18.06.35.15.5.28,2.03,1.69,3.87,3.98,5.33,6.61,1.73,3.11,2.77,6.39,2.94,9.22.03.58.03,1.14,0,1.68.04-.07.08-.14.12-.22.92-1.66,2.08-3.12,3.34-4.22-1.38-1.5-2.12-3.39-2.13-5.4,0-2.12.83-4.12,2.33-5.62,1.5-1.5,3.5-2.33,5.62-2.33,4.38,0,7.94,3.57,7.94,7.95,0,2.03-.75,3.93-2.12,5.4,1.27,1.1,2.42,2.55,3.34,4.22l.13.25c1.06,1.98,1.71,4.07,1.81,5.88.14,2.27-.57,3.96-1.99,4.76-.46.26-.97.4-1.49.4-.03,0-.06,0-.09,0,0,.12,0,.24,0,.36,0,2.36-.45,4.6-1.28,6.31-.99,2.06-2.43,3.19-4.06,3.19-.62,0-1.46-.17-2.2-.92-.74.75-1.59.93-2.21.93Z"/><path class="cls-4" d="m18.06,35.8c1.33,0,2.63.26,3.86.77,1.23.51,2.33,1.24,3.27,2.19.94.94,1.68,2.04,2.19,3.27.51,1.23.77,2.53.77,3.86,0,1.33-.26,2.63-.77,3.86-.51,1.23-1.25,2.33-2.19,3.27-.94.94-2.04,1.68-3.27,2.19-.94.39-1.94.64-2.95.73l-.91.05h0c-2.69,0-5.23-1.05-7.13-2.95-1.91-1.9-2.96-4.44-2.96-7.13,0-2.7,1.05-5.23,2.95-7.14,1.9-1.91,4.44-2.96,7.13-2.96h0m-7.31,20.11c2.17,1.59,4.69,2.43,7.32,2.43,2.65,0,5.18-.85,7.27-2.4l.04-.03h0c1.89,1.57,3.61,3.71,4.97,6.18,1.62,2.92,2.6,5.97,2.76,8.58.05.89,0,1.71-.14,2.43-.07.53-.7,1.8-.7,1.8-.29.44-.65.78-1.09,1.03-.39.22-.78.33-1.19.33-.26,0-.52-.04-.8-.13-.13-.04-.25-.09-.37-.14l-1.56-.71.15,1.71c.06.73.1,1.46.1,2.19,0,3.34-.63,6.49-1.77,8.85-.66,1.37-2.08,3.66-4.23,3.66-.95,0-1.7-.46-2.29-1.42-.09-.15-.17-.3-.25-.47l-.9-1.86-.9,1.86c-.08.17-.17.32-.26.47-.59.95-1.34,1.41-2.3,1.41-2.16,0-3.58-2.29-4.24-3.66-1.13-2.37-1.76-5.51-1.76-8.86,0-.73.03-1.46.1-2.19l.15-1.7-1.56.7c-.12.05-.24.1-.37.14-.27.08-.53.13-.79.13-.41,0-.81-.11-1.2-.33-1.89-1.05-2.02-3.74-1.93-5.26.16-2.61,1.14-5.66,2.76-8.58,1.38-2.48,3.1-4.62,4.97-6.18m33.12.07c3.55,0,6.44,2.89,6.44,6.45,0,1.8-.73,3.47-2.04,4.71l-.83.77,1.1.92c1.2,1,2.3,2.37,3.18,3.95l.12.22c.96,1.8,1.55,3.67,1.64,5.27.06.97-.02,2.69-1.23,3.36-.25.14-.5.21-.76.21-.12,0-.25-.02-.38-.05l-1.3-.31.07,1.34c.02.29.02.58.02.88,0,2.14-.4,4.15-1.13,5.66-.42.87-1.33,2.34-2.71,2.34-.57,0-1.02-.25-1.38-.78l-.82-1.18-.82,1.18c-.37.53-.82.78-1.39.78-1.38,0-2.29-1.47-2.71-2.34-.72-1.51-1.12-3.52-1.12-5.64l.06-2.24-1.27.3c-.13.03-.25.05-.37.05-.26,0-.52-.07-.77-.21-1.2-.67-1.29-2.39-1.23-3.36.05-.78.21-1.62.48-2.5,0,0,.58-1.7.79-2.02.15-.32.32-.64.49-.96.88-1.59,1.98-2.95,3.18-3.95l1.1-.92-.98-.92c-1.22-1.22-1.89-2.84-1.89-4.56,0-1.72.67-3.34,1.89-4.56,1.22-1.22,2.84-1.89,4.56-1.89m-25.82-23.18h0c-3.5,0-6.79,1.36-9.26,3.84-2.47,2.47-3.83,5.76-3.83,9.26,0,3.11,1.08,6.06,3.06,8.41-1.84,1.71-3.51,3.88-4.87,6.33-1.83,3.3-2.95,6.81-3.13,9.86-.23,3.83,1,6.69,3.47,8.06.66.38,1.38.61,2.13.68,0,3.77.73,7.35,2.05,10.1,1.66,3.46,4.12,5.37,6.94,5.37,1.3,0,2.48-.42,3.46-1.22.97.8,2.15,1.22,3.44,1.22,2.81,0,5.28-1.91,6.94-5.36,1.32-2.75,2.05-6.33,2.06-10.09.25-.02.5-.07.75-.13.1,2.37,1.06,4.17,2.78,5.12.27.15.54.28.83.37.1,2.24.59,4.36,1.4,6.05,1.23,2.57,3.2,4.05,5.41,4.05.8,0,1.55-.19,2.21-.56.66.37,1.41.56,2.2.56,2.24,0,4.16-1.44,5.41-4.04.81-1.68,1.3-3.8,1.4-6.04.29-.1.58-.23.86-.39,1.92-1.08,2.9-3.26,2.73-6.14-.12-2.02-.83-4.33-1.99-6.5l-.11-.21s-.02-.03-.03-.05c-.75-1.36-1.65-2.59-2.63-3.63,1.04-1.54,1.6-3.35,1.6-5.27,0-5.21-4.24-9.45-9.44-9.45h0c-2.52,0-4.89.98-6.68,2.77-1.78,1.78-2.77,4.16-2.77,6.68,0,.53.04,1.06.13,1.57-.44-1.13-.98-2.25-1.59-3.36-1.35-2.45-3.03-4.62-4.88-6.34.86-1.02,1.55-2.16,2.07-3.41.66-1.6,1-3.28,1-5.01,0-1.73-.34-3.42-1-5.01-.66-1.6-1.62-3.02-2.84-4.24-1.22-1.22-2.65-2.17-4.25-2.83-1.59-.66-3.28-.99-5.01-.99h0Zm17.7,35.19c-.08-.41-.18-.83-.3-1.26.17.33.36.65.57.96-.09.1-.18.2-.27.3h0Z"/></g></svg>