<svg width="48" height="48" viewBox="0 0 48 48" fill="none" xmlns="http://www.w3.org/2000/svg">
<path d="M34.828 20.828C36 19.656 36 17.772 36 14C36 10.228 36 8.344 34.828 7.172M34.828 20.828C33.656 22 31.772 22 28 22H20C16.228 22 14.344 22 13.172 20.828M34.828 7.172C33.656 6 31.772 6 28 6H20C16.228 6 14.344 6 13.172 7.172M13.172 7.172C12 8.344 12 10.228 12 14C12 17.772 12 19.656 13.172 20.828M26 14C26 14.5304 25.7893 15.0391 25.4142 15.4142C25.0391 15.7893 24.5304 16 24 16C23.4696 16 22.9609 15.7893 22.5858 15.4142C22.2107 15.0391 22 14.5304 22 14C22 13.4696 22.2107 12.9609 22.5858 12.5858C22.9609 12.2107 23.4696 12 24 12C24.5304 12 25.0391 12.2107 25.4142 12.5858C25.7893 12.9609 26 13.4696 26 14Z" stroke="#FACA9E" stroke-width="3.5"/>
<path d="M36 12C34.4087 12 32.8826 11.3679 31.7574 10.2426C30.6321 9.11742 30 7.5913 30 6M36 16C34.4087 16 32.8826 16.6321 31.7574 17.7574C30.6321 18.8826 30 20.4087 30 22M12 12C13.5913 12 15.1174 11.3679 16.2426 10.2426C17.3679 9.11742 18 7.5913 18 6M12 16C13.5913 16 15.1174 16.6321 16.2426 17.7574C17.3679 18.8826 18 20.4087 18 22M10 40.776H14.52C16.54 40.776 18.586 40.988 20.552 41.392C24.062 42.1131 27.6735 42.193 31.212 41.628C32.948 41.348 34.652 40.918 36.196 40.174C37.588 39.5 39.294 38.554 40.44 37.492C41.584 36.432 42.776 34.698 43.62 33.342C44.348 32.178 43.996 30.752 42.848 29.886C42.2029 29.4168 41.4257 29.164 40.628 29.164C39.8303 29.164 39.0531 29.4168 38.408 29.886L34.794 32.616C33.394 33.676 31.864 34.65 30.042 34.94C29.822 34.974 29.592 35.006 29.352 35.034M29.352 35.034C29.2787 35.0425 29.2054 35.0505 29.132 35.058M29.352 35.034C29.6721 34.9474 29.9656 34.7825 30.206 34.554C30.5074 34.2933 30.7535 33.9748 30.9298 33.6174C31.1061 33.2601 31.209 32.871 31.2325 32.4732C31.256 32.0754 31.1996 31.6769 31.0665 31.3012C30.9335 30.9256 30.7266 30.5804 30.458 30.286C30.1974 29.9967 29.8938 29.7491 29.558 29.552C23.964 26.214 15.258 28.756 10 32.486M29.352 35.034C29.2797 35.0497 29.206 35.0578 29.132 35.058M29.132 35.058C27.9258 35.1792 26.7107 35.1819 25.504 35.066" stroke="#FACA9E" stroke-width="3.5" stroke-linecap="round"/>
<path d="M10 31C10 29.3431 8.65685 28 7 28C5.34315 28 4 29.3431 4 31V41C4 42.6569 5.34315 44 7 44C8.65685 44 10 42.6569 10 41V31Z" stroke="#FACA9E" stroke-width="3.5"/>
</svg>
