<svg width="43" height="40" viewBox="0 0 43 40" fill="none" xmlns="http://www.w3.org/2000/svg">
<g clip-path="url(#clip0_1567_2342)">
<path d="M11.4282 30.4766V35.5066C11.4282 35.5889 11.4955 35.6562 11.5778 35.6562H14.6591C14.7414 35.6562 14.8087 35.5889 14.8087 35.5066V34.0164C14.8087 33.9341 14.8761 33.8668 14.9584 33.8668H19.1984C19.2807 33.8668 19.348 33.7995 19.348 33.7172V30.4766" fill="#333333"/>
<path d="M10.3257 24.9658H5.63008C5.54779 24.9658 5.48047 25.0331 5.48047 25.1154V30.9915C5.48047 31.0738 5.54779 31.1411 5.63008 31.1411H6.62576C6.70805 31.1411 6.77538 31.2085 6.77538 31.2907V35.6131C6.77538 35.6954 6.8427 35.7627 6.92499 35.7627H10.316" fill="#333333"/>
<path d="M31.8341 0.149614V6.13267C31.8341 6.21496 31.7668 6.28228 31.6845 6.28228H28.9548C28.8725 6.28228 28.8052 6.34961 28.8052 6.4319V10.0331C28.8052 10.1154 28.8725 10.1827 28.9548 10.1827H31.6845C31.7668 10.1827 31.8341 10.1154 31.8341 10.0331V9.12345C31.8341 9.04116 31.9014 8.97384 31.9837 8.97384H42.4903C42.5726 8.97384 42.64 8.90651 42.64 8.82422V0.149614C42.64 0.0673262 42.5726 0 42.4903 0H31.9837C31.9014 0 31.8341 0.0673262 31.8341 0.149614Z" fill="#333333"/>
<path d="M36.4611 11.6069H33.3671C33.2848 11.6069 33.2175 11.6743 33.2175 11.7565V13.5512C33.2175 13.6335 33.1501 13.7008 33.0678 13.7008H31.6286C31.5463 13.7008 31.4789 13.6335 31.4789 13.5512V12.8143C31.4789 12.732 31.4116 12.6647 31.3293 12.6647H28.6071C28.5248 12.6647 28.4575 12.732 28.4575 12.8143L28.4612 22.3731C28.4612 22.4554 28.3939 22.5228 28.3116 22.5228H25.9477C25.8654 22.5228 25.7981 22.4554 25.7981 22.3731V21.2017C25.7981 21.1194 25.7308 21.0521 25.6485 21.0521H23.6422C23.5599 21.0521 23.4926 21.1194 23.4926 21.2017V24.645C23.4926 24.7273 23.4252 24.7946 23.3429 24.7946H11.5788C11.4965 24.7946 11.4292 24.862 11.4292 24.9443V29.2232C11.4292 29.3055 11.4965 29.3728 11.5788 29.3728H20.4696C20.5519 29.3728 20.6192 29.4401 20.6192 29.5224V33.8852C20.6192 33.9675 20.6866 34.0348 20.7688 34.0348H23.9781C24.0603 34.0348 24.1277 33.9675 24.1277 33.8852V32.9314C24.1277 32.8491 24.195 32.7818 24.2773 32.7818H30.5274C30.6097 32.7818 30.677 32.7144 30.677 32.6322V31.5609C30.677 31.4786 30.7443 31.4113 30.8266 31.4113H32.1081C32.1904 31.4113 32.2577 31.4786 32.2577 31.5609V34.2024C32.2577 34.2846 32.325 34.352 32.4073 34.352H35.3158C35.3981 34.352 35.4654 34.2846 35.4654 34.2024V31.5609C35.4654 31.4786 35.5327 31.4113 35.615 31.4113H36.4581" fill="#333333"/>
<path d="M1.65473 36.1909H0.149614C0.0669844 36.1909 0 36.2579 0 36.3405V39.8512C0 39.9338 0.0669844 40.0008 0.149614 40.0008H1.65473C1.73736 40.0008 1.80434 39.9338 1.80434 39.8512V36.3405C1.80434 36.2579 1.73736 36.1909 1.65473 36.1909Z" fill="#333333"/>
<path d="M19.9971 7H18.5921C18.506 7 18.4305 7.05589 18.4007 7.13758C18.3613 7.24722 18.3188 7.35579 18.2731 7.46327C18.1188 7.82444 17.7689 8.40057 17.7657 8.40595C17.7657 8.40595 17.7647 8.4081 17.7636 8.40917C17.6796 8.54568 17.7764 8.72196 17.9359 8.72196H19.0016C19.075 8.72196 19.142 8.76173 19.1781 8.82623L22.0529 13.9717C22.1295 14.1082 22.0316 14.277 21.8763 14.277H4.12153C3.96625 14.277 3.8684 14.1082 3.94498 13.9717L6.81974 8.82623C6.8559 8.76173 6.92291 8.72196 6.99629 8.72196H8.06196C8.22149 8.72196 8.31828 8.54568 8.23426 8.40917C8.23426 8.4081 8.23213 8.40595 8.23213 8.40487C8.22894 8.40057 7.8801 7.82444 7.72588 7.46327C7.68015 7.35579 7.63761 7.24722 7.59826 7.13758C7.56848 7.05589 7.49297 7 7.40682 7H6.00187C5.92849 7 5.86149 7.03977 5.82533 7.10426L1.02661 15.6947C0.950037 15.8312 1.04788 16 1.20316 16H24.7968C24.9521 16 25.05 15.8312 24.9734 15.6947L20.1747 7.10426C20.1385 7.03977 20.0715 7 19.9981 7H19.9971Z" fill="#333333"/>
<path d="M13.5 0C11.0147 0 9 1.98556 9 4.43501C9 5.05953 9.13081 5.6534 9.36669 6.19232C9.47605 6.44171 9.77948 6.93625 9.79021 6.95315C10.7177 8.43043 11.7073 9.94364 12.6701 11.4558C12.9006 11.8182 13.2009 12 13.5 12C13.7991 12 14.0994 11.8193 14.3299 11.4558C15.2938 9.94259 16.2823 8.42938 17.2098 6.95315C17.2205 6.93625 17.5239 6.44171 17.6333 6.19232C17.8692 5.6534 18 5.05953 18 4.43501C18 1.98556 15.9853 0 13.5 0ZM13.5 6.35188C12.4385 6.35188 11.5786 5.50335 11.5786 4.45826C11.5786 3.41317 12.4385 2.56464 13.5 2.56464C14.5615 2.56464 15.4214 3.41212 15.4214 4.45826C15.4214 5.5044 14.5615 6.35188 13.5 6.35188Z" fill="#333333"/>
</g>
<defs>
<clipPath id="clip0_1567_2342">
<rect width="42.6399" height="40" fill="white"/>
</clipPath>
</defs>
</svg>
