<svg width="48" height="48" viewBox="0 0 48 48" fill="none" xmlns="http://www.w3.org/2000/svg">
<path fill-rule="evenodd" clip-rule="evenodd" d="M32 8H8C6.93913 8 5.92172 8.42143 5.17157 9.17157C4.42143 9.92172 4 10.9391 4 12V36C4 37.0609 4.42143 38.0783 5.17157 38.8284C5.92172 39.5786 6.93913 40 8 40H32C32 39.4696 32.2107 38.9609 32.5858 38.5858C32.9609 38.2107 33.4696 38 34 38C34.5304 38 35.0391 38.2107 35.4142 38.5858C35.7893 38.9609 36 39.4696 36 40H40C41.0609 40 42.0783 39.5786 42.8284 38.8284C43.5786 38.0783 44 37.0609 44 36V12C44 10.9391 43.5786 9.92172 42.8284 9.17157C42.0783 8.42143 41.0609 8 40 8H36C36 8.53043 35.7893 9.03914 35.4142 9.41421C35.0391 9.78929 34.5304 10 34 10C33.4696 10 32.9609 9.78929 32.5858 9.41421C32.2107 9.03914 32 8.53043 32 8ZM34 18.002C34.5304 18.002 35.0391 17.7913 35.4142 17.4162C35.7893 17.0411 36 16.5324 36 16.002V16C36 15.4696 35.7893 14.9609 35.4142 14.5858C35.0391 14.2107 34.5304 14 34 14C33.4696 14 32.9609 14.2107 32.5858 14.5858C32.2107 14.9609 32 15.4696 32 16V16.002C32 16.5324 32.2107 17.0411 32.5858 17.4162C32.9609 17.7913 33.4696 18.002 34 18.002ZM36 24.002C36 24.5324 35.7893 25.0411 35.4142 25.4162C35.0391 25.7913 34.5304 26.002 34 26.002C33.4696 26.002 32.9609 25.7913 32.5858 25.4162C32.2107 25.0411 32 24.5324 32 24.002V24C32 23.4696 32.2107 22.9609 32.5858 22.5858C32.9609 22.2107 33.4696 22 34 22C34.5304 22 35.0391 22.2107 35.4142 22.5858C35.7893 22.9609 36 23.4696 36 24V24.002ZM34 34.002C34.5304 34.002 35.0391 33.7913 35.4142 33.4162C35.7893 33.0411 36 32.5324 36 32.002C36 31.4716 35.7893 30.9609 35.4142 30.5858C35.0391 30.2107 34.5304 30 34 30C33.4696 30 32.9609 30.2107 32.5858 30.5858C32.2107 30.9609 32 31.4696 32 32C32 32.5304 32.2107 33.0411 32.5858 33.4162C32.9609 33.7913 33.4696 34.002 34 34.002ZM27.664 19.11C27.9584 18.6687 28.0654 18.1285 27.9615 17.6083C27.8576 17.088 27.5513 16.6304 27.11 16.336C26.6687 16.0416 26.1285 15.9346 25.6083 16.0385C25.088 16.1424 24.6304 16.4487 24.336 16.89L17.69 26.86L15.414 24.586C15.0368 24.2217 14.5316 24.0201 14.0072 24.0247C13.4828 24.0292 12.9812 24.2395 12.6104 24.6104C12.2395 24.9812 12.0292 25.4828 12.0247 26.0072C12.0201 26.5316 12.2217 27.0368 12.586 27.414L16.586 31.414C16.7952 31.6236 17.0483 31.7841 17.3271 31.884C17.6058 31.9838 17.9033 32.0205 18.198 31.9915C18.4927 31.9624 18.7772 31.8682 19.0311 31.7158C19.285 31.5633 19.5018 31.3564 19.666 31.11L27.666 19.11H27.664Z" fill="#FACA9E"/>
</svg>
