<svg width="123" height="123" viewBox="0 0 123 123" fill="none" xmlns="http://www.w3.org/2000/svg">
<path d="M61.5599 61.557L1.59706 69.9811C-3.05809 36.8637 20.0145 6.24655 53.1301 1.59116C55.7779 1.22169 58.8813 1 61.5599 1V61.557Z" fill="#FDF0E5" stroke="#FACA9E" stroke-miterlimit="10"/>
<path d="M61.56 61.557V1C95.002 1 122.114 28.1133 122.114 61.557C122.114 95.0007 95.002 122.114 61.56 122.114C30.7904 122.114 5.87671 100.457 1.59717 69.9872L61.56 61.557Z" fill="#FACA9E" stroke="#FACA9E" stroke-miterlimit="10"/>
<path d="M82.23 56.8C82.06 57.69 81.92 58.59 81.64 59.46C80.81 62.04 79.31 64.21 77.54 66.21C75.21 68.84 72.56 71.11 69.91 73.4C67.74 75.28 65.56 77.14 63.38 79C62.27 79.95 61.04 79.98 59.93 79.03C56.32 75.91 52.64 72.88 49.13 69.65C47.01 67.69 44.99 65.64 43.42 63.19C41.68 60.48 40.77 57.54 41.05 54.31C41.37 50.62 42.84 47.49 45.84 45.21C47.64 43.84 49.69 43.13 51.95 43.02C55.87 42.83 58.91 44.51 61.3 47.51C61.63 47.92 61.63 47.92 61.96 47.51C63.73 45.29 65.91 43.69 68.76 43.19C72.14 42.6 75.2 43.38 77.87 45.56C80.14 47.42 81.44 49.87 82.01 52.72C82.09 53.14 82.16 53.56 82.23 53.98V56.79V56.8Z" fill="white" stroke="#FACA9E" stroke-miterlimit="10"/>
</svg>
