<svg width="130" height="24" viewBox="0 0 130 24" fill="none" xmlns="http://www.w3.org/2000/svg">
<g clip-path="url(#clip0_1464_2184)">
<path d="M128.427 10.3426C127.844 9.85132 127.028 9.79302 125.996 9.79302H111.664V8.25243H125.571C126.495 8.25243 127.203 8.08588 127.678 7.65284C128.144 7.21148 128.377 6.51197 128.377 5.47935V3.74722C128.377 2.65631 128.119 1.94847 127.636 1.52377C127.153 1.09906 126.445 0.96582 125.579 0.96582H111.439C110.49 0.96582 109.74 1.11572 109.241 1.5654C108.724 2.02342 108.458 2.76457 108.458 3.91377V10.9589C108.458 16.5883 107.658 18.5619 106.834 20.4939C106.609 21.0269 106.376 21.5599 106.376 22.1011C106.384 23.6084 108.191 23.7 108.375 23.7C109.091 23.7 109.474 23.3586 110.123 21.7014C111.414 18.4537 111.606 14.2066 111.656 12.4329H125.163C126.129 12.4495 126.187 12.5911 126.204 13.732C126.204 14.9311 126.054 19.2032 125.563 20.0942C125.263 20.6022 125.205 20.6605 124.114 20.6688C123.922 20.6688 123.706 20.6688 123.447 20.6688C123.656 20.3607 123.847 19.8943 123.847 18.4953V16.8048C123.847 15.564 123.706 14.8062 123.231 14.3399C122.765 13.8735 121.998 13.7486 120.791 13.7486H115.911C114.67 13.7486 113.912 13.8819 113.446 14.3482C112.988 14.8145 112.863 15.5807 112.863 16.8048V18.4953C112.863 19.7278 112.996 20.4939 113.463 20.9603C113.937 21.4183 114.695 21.5515 115.919 21.5515H121.166C121.116 21.6848 121.066 21.868 121.066 22.1428C121.066 22.6591 121.266 23.3419 121.907 23.6584C122.248 23.8416 122.423 23.8416 123.747 23.8416C123.897 23.8416 124.047 23.8416 124.189 23.8416C126.895 23.8416 128.244 23.6917 128.81 21.1268C129.218 19.378 129.343 15.2059 129.343 13.4155C129.343 11.75 129.052 10.8423 128.469 10.351L128.427 10.3426ZM111.664 5.6459V4.38012C111.672 4.0137 111.789 3.68893 112.363 3.68893H124.613C124.996 3.69726 125.146 3.85548 125.163 4.23022V5.08796C125.146 5.52099 124.971 5.63758 124.613 5.65423H111.664V5.6459ZM120.808 16.9547V18.3621C120.799 18.7285 120.708 19.0449 120.133 19.0533H116.511C116.061 19.0449 115.853 18.8367 115.844 18.3621V16.9547C115.844 16.4717 116.036 16.2719 116.511 16.2552H120.133C120.658 16.2635 120.791 16.5383 120.808 16.9547Z" fill="#ED6C00"/>
<path d="M37.1074 17.0549C36.0831 19.8113 34.7257 21.9682 32.3024 21.9682C29.3128 21.9682 26.4731 17.9709 26.4731 13.116C26.4731 5.93762 31.8194 1.19092 38.8895 1.19092C46.4926 1.19092 50.0568 6.64546 50.0568 11.8502C50.0568 19.9113 42.7535 23.1257 41.3628 23.1257C40.2053 23.1257 39.5807 22.1264 39.5807 21.2353C39.5807 20.5275 39.8805 20.1611 40.4718 19.8863C42.3871 19.0202 46.401 17.1632 46.401 11.8169C46.401 9.71 45.7348 5.2048 39.9305 4.42201C39.5058 8.14442 38.7979 12.5664 37.0991 17.0466L37.1074 17.0549ZM29.8458 13.1992C29.8458 15.8474 30.9867 18.2457 32.1942 18.2457C33.0269 18.2457 33.5682 16.7634 34.0013 15.5976C35.292 12.0667 36.0248 8.31097 36.5078 4.56358C31.7861 5.7794 29.8458 9.58509 29.8458 13.1909V13.1992Z" fill="#ED6C00"/>
<path d="M67.5865 6.00416C67.5865 6.46218 67.7197 6.80361 67.9945 7.0118C68.286 7.21999 68.7024 7.30326 69.277 7.30326C69.7933 7.30326 70.1763 7.17835 70.4178 6.95351C70.6676 6.72033 70.7676 6.39556 70.7676 6.01249V5.07148H75.1812C75.6725 5.07148 76.0722 4.97988 76.3387 4.73838C76.6218 4.49688 76.7717 4.11381 76.7717 3.55586C76.7717 2.14851 75.5309 2.14018 75.1812 2.13185H70.7676V1.24081C70.7676 0.233171 69.9432 0.0249826 69.0688 0.0166551C68.4359 0.0166551 67.5781 0.233171 67.5781 1.24081V2.13185H61.9903V1.24081C61.9903 0.216516 61.1826 0 60.2915 0C59.6586 0 58.8009 0.216516 58.8009 1.22415V2.1152H54.3623C53.9293 2.1152 53.5296 2.18182 53.2298 2.40666C52.9383 2.63151 52.7634 3.01457 52.7634 3.60583C52.7634 4.97988 53.8293 5.0465 54.354 5.05482H58.7926V5.99584C58.7926 6.32061 58.8425 6.44552 58.9425 6.66204C58.5344 6.80361 58.2263 7.07842 57.9015 7.678C56.6607 9.89313 55.7946 11.467 53.3797 13.6738C52.9883 14.0236 52.5386 14.4483 52.5386 15.2061C52.5386 16.0472 53.2797 17.0465 54.2041 17.0465C54.8703 17.0465 55.4116 16.5468 56.261 15.6558V22.3428C56.261 22.8924 56.3692 23.2922 56.6441 23.5586C56.9272 23.8251 57.3769 23.9334 58.0264 23.9334H58.0348C58.7759 23.9334 59.1756 23.6502 59.3755 23.3088C59.5754 22.9674 59.567 22.5677 59.567 22.3428V11.3671C60.0667 10.526 61.041 8.91881 61.0493 8.10271C61.0493 7.62804 60.9327 7.41152 60.8078 7.24497C61.2575 7.18668 61.982 7.02012 61.982 5.98751V5.0465H67.5698V5.98751L67.5865 6.00416ZM74.9147 16.0805C74.1985 16.0805 73.6489 16.4053 73.499 17.288C73.474 17.4962 73.3491 18.5038 73.3241 18.7037C73.0493 20.6357 73.0743 20.5607 70.8509 20.5857C68.4275 20.5857 68.3859 20.5607 68.1694 20.4858C67.828 20.3692 67.7197 20.111 67.7197 19.6364V15.6058C69.4518 14.873 71.4338 13.7738 72.6996 12.9743C75.4393 11.2255 75.5976 10.7092 75.5892 10.0264C75.5892 9.18529 74.8564 8.33588 73.9154 8.32755C73.3658 8.32755 73.2325 8.44414 72.0167 9.42679C70.6094 10.5344 69.8099 10.9674 67.7197 12.0416V8.44414C67.7197 7.96947 67.6448 7.56142 67.3783 7.27828C67.1118 6.98681 66.6621 6.82859 65.9709 6.82859C64.4137 6.82859 64.397 8.04441 64.397 8.44414V20.619C64.397 21.1936 64.397 22.7425 65.6878 23.3171C66.2374 23.5753 66.3706 23.6253 71.3672 23.6253H71.5504C73.8571 23.6253 75.0146 23.6003 75.7475 22.3595C76.3554 21.3269 76.6552 18.8203 76.6552 17.6544C76.6552 17.0881 76.4803 16.6884 76.1722 16.4303C75.864 16.1804 75.4227 16.0805 74.9147 16.0805Z" fill="#ED6C00"/>
<path d="M103.262 6.77863C103.262 6.14573 102.695 5.3213 101.846 5.31298C101.455 5.31298 101.163 5.4712 100.905 5.64608C100.705 5.79598 99.6725 6.63706 99.4227 6.77863C98.0487 7.70298 97.8571 7.83622 97.8571 8.39417C97.8571 9.00208 98.3901 9.87647 99.1729 9.8848C99.8391 9.8848 100.788 9.2186 101.538 8.71895C103.095 7.66967 103.253 7.32824 103.245 6.77863H103.262ZM81.6017 4.12214H85.5823V4.46357C85.5823 4.75503 85.6323 5.06315 85.8821 5.29632C86.1236 5.52117 86.5483 5.65441 87.2561 5.65441C87.6309 5.65441 88.7468 5.57113 88.7468 4.46357V4.12214H95.1923V4.46357C95.1923 4.73838 95.2256 5.0465 95.4671 5.27967C95.7086 5.50451 96.1333 5.65441 96.8578 5.65441C97.2325 5.65441 98.3484 5.57113 98.3484 4.46357V4.12214H102.371C102.929 4.12214 103.945 4.01388 103.945 2.83137C103.945 1.51561 102.72 1.50729 102.371 1.50729H98.3484C98.3484 1.13255 98.3484 0.757807 98.1319 0.482998C97.9237 0.174879 97.4907 0 96.6663 0C95.9584 0 95.567 0.224844 95.3838 0.549618C95.209 0.84941 95.2006 1.20749 95.2006 1.50729H88.7551C88.7551 1.14087 88.7551 0.774462 88.5386 0.491325C88.3137 0.183206 87.8807 0 87.0563 0C86.3484 0 85.9654 0.224844 85.7738 0.549618C85.5906 0.84941 85.5906 1.20749 85.5823 1.50729H81.6017C80.9688 1.50729 80.0278 1.67384 80.0278 2.83137C80.0278 4.12214 81.2853 4.12214 81.6017 4.12214ZM98.3484 12.8744C98.9314 13.1992 100.164 13.857 100.539 14.0819C101.788 14.8563 101.963 14.9729 102.462 14.9729C103.437 14.9729 103.753 14.0486 103.803 13.6905C103.811 13.6239 103.82 13.5489 103.82 13.4906C103.82 12.7578 103.17 12.3248 102.67 12.025C101.779 11.492 99.7391 10.3345 98.9647 10.3345C98.0153 10.3345 97.549 11.2255 97.549 11.8001C97.549 12.408 97.982 12.6912 98.3568 12.8827L98.3484 12.8744ZM103.412 18.0375C103.711 17.8709 103.936 17.5378 103.928 16.9216C103.928 16.3886 103.778 16.0555 103.52 15.8557C103.262 15.6558 102.929 15.5975 102.554 15.5975H93.4852V14.6398H94.7093C95.8752 14.6398 96.5414 14.4233 96.9161 13.932C97.2908 13.449 97.3575 12.7328 97.3575 11.7585V8.76891C97.3575 7.81124 97.2992 7.08675 96.9244 6.59542C96.5497 6.10409 95.8835 5.8626 94.7093 5.8626H93.252C93.3436 5.57946 93.3852 5.42956 93.3852 5.29632C93.3769 4.78001 92.7607 4.34698 91.7114 4.34698C90.7204 4.33865 90.5122 4.70507 90.0126 5.85427H89.3047C88.1305 5.85427 87.4477 6.06246 87.0646 6.54545C86.6815 7.03678 86.6233 7.75295 86.6233 8.76058V11.7502C86.6233 12.7495 86.6815 13.4656 87.0646 13.9403C87.4477 14.4233 88.1305 14.6232 89.3047 14.6232H90.3457V15.5808H81.4352C81.0854 15.5808 80.0611 15.5892 80.0611 16.8217C80.0611 17.3046 80.1527 17.6544 80.3859 17.8792C80.6191 18.1041 80.9605 18.1957 81.4352 18.1957H87.7641C86.9647 18.6287 85.1992 19.5031 83.4255 19.9362C80.8273 20.5774 80.261 20.7273 80.261 21.8348C80.261 22.3262 80.5691 23.4504 81.66 23.4587C82.8342 23.4587 87.3144 21.8015 90.354 19.5697V22.3928C90.354 22.8675 90.3956 23.9833 91.8196 23.9917C92.3443 23.9917 92.769 23.9084 93.0604 23.6586C93.3519 23.4171 93.4935 23.0007 93.4935 22.3928V19.3616C96.533 21.9597 101.188 23.4337 102.237 23.4337C103.462 23.4337 103.728 22.3262 103.736 21.8681C103.736 20.8688 102.929 20.644 102.254 20.4774C100.106 19.9195 98.1985 19.4032 96.0833 18.204H102.571C102.795 18.204 103.128 18.204 103.42 18.0291L103.412 18.0375ZM89.6212 8.41083C89.6212 8.05274 89.7627 7.87786 90.1292 7.86953H93.7766C94.1847 7.87786 94.3096 8.01943 94.3262 8.41083V9.03539H89.6212V8.41083ZM90.1292 12.4247C89.7627 12.4247 89.6295 12.2415 89.6212 11.8834V11.2172H94.3262V11.8834C94.3179 12.2415 94.1847 12.4164 93.7766 12.4247H90.1292ZM84.6496 9.68494C85.2825 9.68494 86.0403 9.09369 86.0403 8.0111C86.0403 7.46981 85.6073 7.15337 84.6829 6.5288C83.9501 6.02915 82.701 5.18806 81.9931 5.18806C81.227 5.18806 80.6357 5.97918 80.6274 6.66204C80.6274 7.08675 80.8356 7.39487 81.0022 7.53643C81.2187 7.71964 82.2929 8.39417 82.5094 8.56905C83.8169 9.47675 84.1083 9.68494 84.6413 9.68494H84.6496ZM80.1278 13.1908C80.1278 13.5822 80.3609 14.7564 81.4768 14.7647C82.2929 14.7647 84.2666 13.6822 85.066 13.2241C85.6989 12.8744 86.3734 12.508 86.3734 11.7668C86.3734 11.7169 86.3734 11.6586 86.3651 11.6086C86.2902 11.1173 85.9154 10.3761 85.1409 10.3761C84.8661 10.3761 84.6246 10.4511 84.2915 10.601C83.9085 10.7509 82.1014 11.6336 81.6767 11.7835C80.6524 12.1749 80.1194 12.4081 80.1194 13.1992L80.1278 13.1908Z" fill="#ED6C00"/>
<path d="M4.10546 17.5293C3.44758 18.7368 3.05618 19.4946 1.9736 19.4946C1.10754 19.4946 0.00830078 18.9283 0.00830078 17.8041C0.00830078 17.2628 0.0915763 17.0713 0.999279 15.4807C1.43231 14.6896 3.10615 11.267 4.40525 7.7944C1.48228 7.84437 0.133214 7.89433 0.133214 6.02896C0.133214 4.32181 1.53224 4.32181 2.10684 4.32181C2.78137 4.32181 4.97152 4.32181 5.54612 4.29683C5.69602 3.78052 6.30393 1.30724 6.50379 0.940826C6.79525 0.341242 7.31989 0.0581055 7.99442 0.0581055C8.80219 0.0581055 10.018 0.4495 10.018 1.5071C10.018 1.92348 9.94307 2.1733 9.39345 3.97205C9.77652 3.92209 11.4004 3.69724 11.7418 3.69724C12.6912 3.69724 13.1492 4.42174 13.1492 5.28781C13.1492 6.99495 12.3414 7.11987 8.23592 7.51126C7.0201 10.9172 5.78762 14.3149 4.10546 17.5293ZM14.0902 10.4009C14.0902 8.86033 15.2727 8.78538 15.6807 8.78538C17.3796 8.78538 17.4628 10.0262 17.4878 10.5175C17.6211 12.5744 17.6794 14.3732 17.7043 15.639C19.2699 16.2052 21.1603 17.1796 22.0263 17.7791C22.7009 18.2371 23.0257 18.5952 23.0257 19.2614C23.0257 20.1275 22.4594 21.2934 21.3518 21.2934C21.0021 21.2934 20.8688 21.2101 19.678 20.4523C19.0034 20.0192 18.0291 19.5362 17.8126 19.428C17.8126 22.7507 15.6308 23.9748 12.3081 23.9748C8.80219 23.9748 6.12905 22.2427 6.12905 19.2448C6.12905 16.7965 8.0194 14.4731 12.0083 14.4731C12.9576 14.4731 13.932 14.6313 14.2734 14.6896C14.2401 14.09 14.0902 11.1088 14.0902 10.4259V10.4009ZM11.7918 17.5626C10.0097 17.5626 9.26021 18.2705 9.26021 19.1782C9.26021 20.5772 10.9923 20.9353 11.9334 20.9353C12.2248 20.9353 14.0152 20.9103 14.3317 19.7444C14.415 19.4696 14.3817 19.3114 14.3817 17.9707C13.8987 17.8041 12.8161 17.5626 11.7918 17.5626Z" fill="#ED6C00"/>
<path d="M25.4071 5.98755C25.3988 7.76132 22.8006 7.35327 21.3349 6.95354C21.718 8.44417 22.1261 11.0507 20.344 11.0424C18.5619 11.034 18.9782 8.43585 19.353 6.95354C17.8707 7.34494 15.2642 7.76132 15.2725 5.98755C15.2808 4.17214 17.879 4.59685 19.353 4.99657C18.9782 3.49761 18.5535 0.907741 20.3356 0.924396C22.1261 0.932724 21.7097 3.50594 21.3266 5.0049C22.8006 4.6135 25.4071 4.18047 25.3988 5.99587L25.4071 5.98755ZM20.7437 6.37061C21.3433 6.32898 21.8429 6.18741 22.151 5.98755C21.8512 5.7627 21.3433 5.62113 20.7437 5.5795C20.6937 4.98824 20.5438 4.47193 20.3356 4.15549C20.1274 4.48026 19.9775 4.98824 19.9359 5.5795C19.3447 5.62113 18.8367 5.7627 18.5369 5.98755C18.8367 6.18741 19.3447 6.32898 19.9359 6.37061C19.9859 6.96187 20.1358 7.47818 20.3356 7.7863C20.5438 7.47818 20.6937 6.96187 20.7437 6.37061Z" fill="#ED6C00"/>
</g>
<defs>
<clipPath id="clip0_1464_2184">
<rect width="129.302" height="24" fill="white"/>
</clipPath>
</defs>
</svg>
