<svg width="195" height="36" viewBox="0 0 195 36" fill="none" xmlns="http://www.w3.org/2000/svg">
<g clip-path="url(#clip0_1576_2980)">
<path d="M193.314 15.514C192.44 14.777 191.216 14.6895 189.667 14.6895H168.169V12.3786H189.03C190.416 12.3786 191.478 12.1288 192.19 11.4793C192.89 10.8172 193.239 9.76795 193.239 8.21903V5.62083C193.239 3.98447 192.852 2.92271 192.128 2.28565C191.403 1.64859 190.341 1.44873 189.042 1.44873H167.832C166.408 1.44873 165.284 1.67357 164.534 2.34811C163.76 3.03513 163.36 4.14686 163.36 5.87066V16.4383C163.36 24.8825 162.161 27.8429 160.924 30.7409C160.587 31.5403 160.237 32.3398 160.237 33.1517C160.25 35.4126 162.96 35.5501 163.235 35.5501C164.309 35.5501 164.884 35.0379 165.858 32.5521C167.795 27.6805 168.082 21.3099 168.157 18.6493H188.418C189.867 18.6743 189.954 18.8866 189.979 20.5979C189.979 22.3967 189.754 28.8047 189.017 30.1413C188.568 30.9033 188.48 30.9907 186.844 31.0032C186.557 31.0032 186.232 31.0032 185.845 31.0032C186.157 30.541 186.444 29.8415 186.444 27.743V25.2072C186.444 23.346 186.232 22.2093 185.52 21.5098C184.82 20.8103 183.671 20.6229 181.86 20.6229H174.54C172.679 20.6229 171.542 20.8228 170.842 21.5223C170.155 22.2218 169.968 23.371 169.968 25.2072V27.743C169.968 29.5917 170.168 30.7409 170.867 31.4404C171.579 32.1274 172.716 32.3273 174.552 32.3273H182.422C182.347 32.5271 182.272 32.802 182.272 33.2142C182.272 33.9886 182.572 35.0129 183.534 35.4876C184.046 35.7624 184.308 35.7624 186.294 35.7624C186.519 35.7624 186.744 35.7624 186.956 35.7624C191.016 35.7624 193.04 35.5376 193.889 31.6902C194.501 29.0671 194.688 22.8089 194.688 20.1233C194.688 17.625 194.251 16.2634 193.377 15.5265L193.314 15.514ZM168.169 8.46886V6.57017C168.182 6.02056 168.357 5.53339 169.219 5.53339H187.593C188.168 5.54589 188.393 5.78322 188.418 6.34533V7.63194C188.393 8.28149 188.13 8.45636 187.593 8.48135H168.169V8.46886ZM181.885 25.4321V27.5431C181.872 28.0927 181.735 28.5674 180.873 28.5799H175.439C174.765 28.5674 174.452 28.2551 174.44 27.5431V25.4321C174.44 24.7076 174.727 24.4078 175.439 24.3828H180.873C181.66 24.3953 181.86 24.8075 181.885 25.4321Z" fill="#ED6C00"/>
<path d="M56.3342 25.5821C54.7978 29.7167 52.7617 32.952 49.1267 32.952C44.6424 32.952 40.3828 26.9562 40.3828 19.6737C40.3828 8.90619 48.4022 1.78613 59.0074 1.78613C70.412 1.78613 75.7582 9.96795 75.7582 17.775C75.7582 29.8666 64.8034 34.6883 62.7173 34.6883C60.981 34.6883 60.0442 33.1893 60.0442 31.8528C60.0442 30.791 60.4938 30.2414 61.3807 29.8292C64.2537 28.5301 70.2746 25.7445 70.2746 17.7251C70.2746 14.5648 69.2752 7.80695 60.5688 6.63277C59.9317 12.2164 58.87 18.8493 56.3217 25.5696L56.3342 25.5821ZM45.4418 19.7986C45.4418 23.7709 47.1531 27.3684 48.9644 27.3684C50.2135 27.3684 51.0254 25.1449 51.675 23.3961C53.6111 18.0998 54.7104 12.4662 55.4349 6.84512C48.3523 8.66885 45.4418 14.3774 45.4418 19.7861V19.7986Z" fill="#ED6C00"/>
<path d="M102.053 9.00625C102.053 9.69327 102.253 10.2054 102.665 10.5177C103.103 10.83 103.727 10.9549 104.589 10.9549C105.363 10.9549 105.938 10.7675 106.3 10.4303C106.675 10.0805 106.825 9.59334 106.825 9.01874V7.60722H113.445C114.182 7.60722 114.782 7.46981 115.182 7.10756C115.606 6.74532 115.831 6.17072 115.831 5.3338C115.831 3.22276 113.97 3.21027 113.445 3.19778H106.825V1.86121C106.825 0.349757 105.588 0.037474 104.277 0.0249827C103.327 0.0249827 102.041 0.349757 102.041 1.86121V3.19778H93.6591V1.86121C93.6591 0.324774 92.4474 0 91.1109 0C90.1615 0 88.8749 0.324774 88.8749 1.83623V3.1728H82.217C81.5675 3.1728 80.9679 3.27273 80.5182 3.60999C80.081 3.94726 79.8187 4.52186 79.8187 5.40874C79.8187 7.46981 81.4176 7.56974 82.2046 7.58224H88.8624V8.99375C88.8624 9.48092 88.9374 9.66829 89.0873 9.99306C88.4752 10.2054 88.013 10.6176 87.5259 11.517C85.6647 14.8397 84.3656 17.2006 80.7431 20.5108C80.156 21.0354 79.4814 21.6725 79.4814 22.8092C79.4814 24.0708 80.5932 25.5697 81.9797 25.5697C82.979 25.5697 83.7909 24.8203 85.0651 23.4837V33.5142C85.0651 34.3387 85.2275 34.9382 85.6397 35.338C86.0644 35.7377 86.7389 35.9001 87.7132 35.9001H87.7257C88.8375 35.9001 89.437 35.4754 89.7368 34.9632C90.0366 34.4511 90.0241 33.8515 90.0241 33.5142V17.0507C90.7736 15.789 92.2351 13.3782 92.2476 12.1541C92.2476 11.4421 92.0727 11.1173 91.8853 10.8675C92.5599 10.78 93.6466 10.5302 93.6466 8.98126V7.56974H102.028V8.98126L102.053 9.00625ZM113.046 24.1208C111.971 24.1208 111.147 24.6079 110.922 25.932C110.885 26.2443 110.697 27.7557 110.66 28.0555C110.248 30.9535 110.285 30.8411 106.95 30.8786C103.315 30.8786 103.252 30.8411 102.928 30.7287C102.416 30.5538 102.253 30.1666 102.253 29.4545V23.4087C104.851 22.3095 107.824 20.6607 109.723 19.4615C113.833 16.8383 114.07 16.0638 114.057 15.0396C114.057 13.7779 112.958 12.5038 111.547 12.4913C110.722 12.4913 110.522 12.6662 108.699 14.1402C106.588 15.8015 105.388 16.4511 102.253 18.0625V12.6662C102.253 11.9542 102.141 11.3421 101.741 10.9174C101.341 10.4802 100.667 10.2429 99.63 10.2429C97.2941 10.2429 97.2691 12.0666 97.2691 12.6662V30.9285C97.2691 31.7904 97.2691 34.1138 99.2052 34.9757C100.03 35.3629 100.23 35.4379 107.724 35.4379H107.999C111.459 35.4379 113.196 35.4004 114.295 33.5392C115.207 31.9903 115.656 28.2304 115.656 26.4816C115.656 25.6322 115.394 25.0326 114.932 24.6454C114.47 24.2706 113.808 24.1208 113.046 24.1208Z" fill="#ED6C00"/>
<path d="M155.566 10.1679C155.566 9.2186 154.716 7.98196 153.442 7.96947C152.855 7.96947 152.418 8.2068 152.031 8.46912C151.731 8.69396 150.182 9.95559 149.807 10.1679C147.746 11.5545 147.459 11.7543 147.459 12.5913C147.459 13.5031 148.258 14.8147 149.432 14.8272C150.432 14.8272 151.856 13.8279 152.98 13.0784C155.316 11.5045 155.553 10.9924 155.541 10.1679H155.566ZM123.076 6.18321H129.047V6.69535C129.047 7.13255 129.122 7.59473 129.496 7.94448C129.858 8.28175 130.496 8.48161 131.557 8.48161C132.119 8.48161 133.793 8.3567 133.793 6.69535V6.18321H143.462V6.69535C143.462 7.10756 143.512 7.56974 143.874 7.9195C144.236 8.25677 144.873 8.48161 145.96 8.48161C146.522 8.48161 148.196 8.3567 148.196 6.69535V6.18321H154.229C155.066 6.18321 156.59 6.02082 156.59 4.24705C156.59 2.27342 154.754 2.26093 154.229 2.26093H148.196C148.196 1.69882 148.196 1.13671 147.871 0.724497C147.559 0.262318 146.909 0 145.673 0C144.611 0 144.024 0.337266 143.749 0.824428C143.487 1.27412 143.474 1.81124 143.474 2.26093H133.806C133.806 1.71131 133.806 1.16169 133.481 0.736988C133.144 0.274809 132.494 0 131.258 0C130.196 0 129.621 0.337266 129.334 0.824428C129.059 1.27412 129.059 1.81124 129.047 2.26093H123.076C122.126 2.26093 120.715 2.51076 120.715 4.24705C120.715 6.18321 122.601 6.18321 123.076 6.18321ZM148.196 19.3116C149.07 19.7988 150.919 20.7856 151.481 21.1228C153.355 22.2845 153.617 22.4594 154.366 22.4594C155.828 22.4594 156.303 21.0729 156.378 20.5357C156.39 20.4358 156.403 20.3234 156.403 20.2359C156.403 19.1367 155.428 18.4872 154.679 18.0375C153.342 17.238 150.282 15.5017 149.12 15.5017C147.696 15.5017 146.997 16.8383 146.997 17.7002C146.997 18.6121 147.646 19.0368 148.208 19.3241L148.196 19.3116ZM155.79 27.0562C156.24 26.8064 156.577 26.3067 156.565 25.3824C156.565 24.5829 156.34 24.0833 155.953 23.7835C155.566 23.4837 155.066 23.3963 154.504 23.3963H140.901V21.9598H142.737C144.486 21.9598 145.485 21.635 146.047 20.898C146.609 20.1735 146.709 19.0992 146.709 17.6378V13.1534C146.709 11.7169 146.622 10.6301 146.06 9.89313C145.498 9.15614 144.498 8.79389 142.737 8.79389H140.551C140.688 8.36919 140.751 8.14434 140.751 7.94448C140.738 7.17002 139.814 6.52047 138.24 6.52047C136.754 6.50798 136.441 7.0576 135.692 8.7814H134.63C132.869 8.7814 131.845 9.09369 131.27 9.81818C130.695 10.5552 130.608 11.6294 130.608 13.1409V17.6253C130.608 19.1242 130.695 20.1985 131.27 20.9105C131.845 21.635 132.869 21.9348 134.63 21.9348H136.192V23.3713H122.826C122.301 23.3713 120.765 23.3838 120.765 25.2325C120.765 25.957 120.902 26.4816 121.252 26.8189C121.602 27.1561 122.114 27.2935 122.826 27.2935H132.319C131.12 27.9431 128.472 29.2547 125.811 29.9042C121.914 30.8661 121.065 31.0909 121.065 32.7523C121.065 33.4892 121.527 35.1756 123.163 35.1881C124.924 35.1881 131.645 32.7023 136.204 29.3546V33.5892C136.204 34.3012 136.267 35.975 138.403 35.9875C139.19 35.9875 139.827 35.8626 140.264 35.4879C140.701 35.1256 140.913 34.501 140.913 33.5892V29.0423C145.473 32.9396 152.455 35.1506 154.029 35.1506C155.865 35.1506 156.265 33.4892 156.278 32.8022C156.278 31.3033 155.066 30.966 154.054 30.7162C150.831 29.8793 147.971 29.1048 144.798 27.306H154.529C154.866 27.306 155.366 27.306 155.803 27.0437L155.79 27.0562ZM135.105 12.6162C135.105 12.0791 135.317 11.8168 135.867 11.8043H141.338C141.95 11.8168 142.137 12.0291 142.162 12.6162V13.5531H135.105V12.6162ZM135.867 18.6371C135.317 18.6371 135.117 18.3623 135.105 17.8251V16.8258H142.162V17.8251C142.15 18.3623 141.95 18.6246 141.338 18.6371H135.867ZM127.648 14.5274C128.597 14.5274 129.734 13.6405 129.734 12.0167C129.734 11.2047 129.084 10.73 127.697 9.7932C126.598 9.04372 124.725 7.7821 123.663 7.7821C122.514 7.7821 121.627 8.96877 121.614 9.99306C121.614 10.6301 121.926 11.0923 122.176 11.3047C122.501 11.5795 124.112 12.5913 124.437 12.8536C126.398 14.2151 126.836 14.5274 127.635 14.5274H127.648ZM120.865 19.7863C120.865 20.3734 121.214 22.1346 122.888 22.1471C124.112 22.1471 127.073 20.5232 128.272 19.8362C129.221 19.3116 130.233 18.762 130.233 17.6502C130.233 17.5753 130.233 17.4879 130.221 17.4129C130.108 16.6759 129.546 15.5642 128.385 15.5642C127.972 15.5642 127.61 15.6766 127.11 15.9015C126.536 16.1263 123.825 17.4504 123.188 17.6752C121.652 18.2623 120.852 18.6121 120.852 19.7988L120.865 19.7863Z" fill="#ED6C00"/>
<path d="M6.83128 26.2942C5.84446 28.1054 5.25737 29.2422 3.6335 29.2422C2.3344 29.2422 0.685547 28.3927 0.685547 26.7064C0.685547 25.8945 0.81046 25.6072 2.17201 23.2213C2.82156 22.0347 5.33232 16.9007 7.28097 11.6918C2.89651 11.7668 0.872917 11.8417 0.872917 9.04368C0.872917 6.48296 2.97146 6.48296 3.83336 6.48296C4.84516 6.48296 8.13038 6.48296 8.99228 6.44549C9.21712 5.67102 10.129 1.9611 10.4288 1.41148C10.866 0.512107 11.6529 0.0874023 12.6647 0.0874023C13.8764 0.0874023 15.7001 0.674495 15.7001 2.26089C15.7001 2.88546 15.5877 3.2602 14.7633 5.95832C15.3379 5.88338 17.7737 5.54611 18.2858 5.54611C19.7098 5.54611 20.3969 6.63286 20.3969 7.93195C20.3969 10.4927 19.1852 10.68 13.027 11.2671C11.2032 16.3761 9.35453 21.4726 6.83128 26.2942ZM21.8084 15.6016C21.8084 13.2907 23.5821 13.1783 24.1942 13.1783C26.7425 13.1783 26.8674 15.0395 26.9048 15.7765C27.1047 18.8619 27.1921 21.56 27.2296 23.4587C29.578 24.3081 32.4135 25.7696 33.7126 26.6689C34.7244 27.356 35.2116 27.8931 35.2116 28.8924C35.2116 30.1915 34.3622 31.9403 32.7008 31.9403C32.1762 31.9403 31.9763 31.8154 30.1901 30.6787C29.1783 30.0291 27.7168 29.3046 27.392 29.1422C27.392 34.1263 24.1193 35.9625 19.1352 35.9625C13.8764 35.9625 9.86667 33.3643 9.86667 28.8674C9.86667 25.195 12.7022 21.7099 18.6855 21.7099C20.1096 21.7099 21.571 21.9472 22.0832 22.0347C22.0332 21.1353 21.8084 16.6634 21.8084 15.6391V15.6016ZM18.3608 26.3442C15.6876 26.3442 14.5634 27.4059 14.5634 28.7675C14.5634 30.866 17.1616 31.4032 18.5731 31.4032C19.0103 31.4032 21.696 31.3657 22.1706 29.6169C22.2955 29.2047 22.2456 28.9673 22.2456 26.9562C21.5211 26.7064 19.8972 26.3442 18.3608 26.3442Z" fill="#ED6C00"/>
<path d="M38.784 8.98156C38.7715 11.6422 34.8742 11.0301 32.6757 10.4306C33.2503 12.6665 33.8624 16.5763 31.1893 16.5638C28.5161 16.5513 29.1407 12.654 29.7028 10.4306C27.4794 11.0177 23.5696 11.6422 23.5821 8.98156C23.5946 6.25846 27.4918 6.89551 29.7028 7.4951C29.1407 5.24666 28.5036 1.36186 31.1768 1.38684C33.8624 1.39933 33.2379 5.25915 32.6633 7.50759C34.8742 6.9205 38.784 6.27095 38.7715 8.99406L38.784 8.98156ZM31.7889 9.55617C32.6882 9.49371 33.4377 9.28136 33.8999 8.98156C33.4502 8.6443 32.6882 8.43195 31.7889 8.36949C31.7139 7.48261 31.4891 6.70814 31.1768 6.23347C30.8645 6.72063 30.6397 7.48261 30.5772 8.36949C29.6903 8.43195 28.9283 8.6443 28.4787 8.98156C28.9283 9.28136 29.6903 9.49371 30.5772 9.55617C30.6522 10.4431 30.877 11.2175 31.1768 11.6797C31.4891 11.2175 31.7139 10.4431 31.7889 9.55617Z" fill="#ED6C00"/>
</g>
<defs>
<clipPath id="clip0_1576_2980">
<rect width="193.953" height="36" fill="white" transform="translate(0.673828)"/>
</clipPath>
</defs>
</svg>
